<svg width="100" height="98" viewBox="0 0 100 98" fill="none" xmlns="http://www.w3.org/2000/svg">
<path d="M44.8772 41.239L56.0603 47.7331L44.8772 54.2272V41.239ZM41.8481 35.9633V59.5029L62.1184 47.7331L41.8481 35.9633Z" fill="white"/>
<path d="M65.8172 1.91469C66.0565 2.28073 66.0987 2.7594 65.9298 3.35071C65.7609 3.95608 65.4793 4.35029 65.0992 4.53331C64.705 4.71633 64.17 4.71633 63.4801 4.53331L60.4532 3.70267L59.8338 5.99748L58.806 5.71591L60.3688 0L64.4093 1.11221C65.1132 1.28115 65.5778 1.56272 65.8172 1.91469ZM64.3811 3.66043C64.5782 3.56188 64.719 3.36478 64.8035 3.06913C64.888 2.7594 64.8739 2.52007 64.7472 2.33705C64.6205 2.15402 64.3811 2.01324 64.0292 1.92877L61.1572 1.14037L60.6785 2.87203L63.5505 3.66043C63.9025 3.75898 64.184 3.75898 64.3811 3.66043Z" fill="white"/>
<path d="M68.2242 8.78509L71.0118 3.54785L71.9551 4.0406L69.6039 8.46128L73.6727 10.6294L73.2362 11.4459L68.2242 8.78509Z" fill="white"/>
<path d="M80.9376 15.768L78.1782 13.3888L76.8126 13.9519L75.9257 13.1917L82.1062 10.6857L83.0494 11.5022L81.4867 17.9784L80.5857 17.2041L80.9376 15.768ZM81.1911 14.7966L81.9231 11.8683L81.895 11.8401L79.1074 12.9946L81.1911 14.7966Z" fill="white"/>
<path d="M86.6956 20.8363L84.9639 22.2019L84.3022 21.3713L86.0339 20.0198L87.1602 15.402L87.9768 16.4297L87.118 19.8508H90.6658L91.4401 20.8504L86.6956 20.8363Z" fill="white"/>
<path d="M96.9026 34.7459C96.9448 34.3799 96.8744 33.9153 96.6914 33.324C96.3254 32.24 95.8749 31.7754 95.3258 31.9584C95.1005 32.0288 94.9738 32.1555 94.9316 32.3385C94.8894 32.5215 94.9034 32.7749 94.9738 33.1128L95.4807 35.2669C95.6074 35.8441 95.6074 36.3228 95.4666 36.7029C95.3258 37.083 94.9879 37.3646 94.4388 37.5476C93.7912 37.7588 93.2562 37.6461 92.7917 37.2238C92.3411 36.7873 91.9469 36.0834 91.6231 35.0979C91.2993 34.1406 91.2149 33.3381 91.3416 32.7186C91.4823 32.0851 91.9188 31.6487 92.6509 31.3812L93.0169 32.4793C92.5664 32.6482 92.2989 32.9298 92.2285 33.324C92.1581 33.7182 92.2285 34.225 92.4397 34.8445C92.6368 35.4499 92.8761 35.9004 93.1295 36.1679C93.397 36.4354 93.6786 36.5199 93.9743 36.4213C94.2418 36.3368 94.4107 36.196 94.467 35.9989C94.5233 35.8018 94.5233 35.5625 94.4529 35.2528L93.9602 33.0847C93.8335 32.5075 93.8335 32.0288 93.9602 31.6627C94.0869 31.2967 94.3966 31.0292 94.8894 30.8603C95.4666 30.6632 95.9875 30.7758 96.4099 31.17C96.8463 31.5642 97.1983 32.1977 97.4939 33.0706C98.1274 34.9994 97.8318 36.182 96.607 36.6184L96.2409 35.5203C96.6492 35.3654 96.8604 35.112 96.9026 34.7459Z" fill="white"/>
<path d="M100 47.5012L94.0871 48.0362L93.9886 46.9803L96.5649 46.7409L96.1848 42.5455L93.6084 42.7849L93.5099 41.729L99.4229 41.194L99.5214 42.2499L97.0999 42.4751L97.4801 46.6705L99.9016 46.4453L100 47.5012Z" fill="white"/>
<path d="M98.93 58.0179C98.6202 58.5247 98.212 58.8908 97.7051 59.116C97.1983 59.3413 96.607 59.4117 95.9312 59.3131C95.2555 59.2146 94.7064 58.9752 94.2981 58.6092C93.8898 58.2432 93.5942 57.7786 93.4393 57.2013C93.2844 56.6382 93.2563 56.0047 93.3689 55.3007C93.4675 54.5968 93.6786 53.9914 93.9884 53.4846C94.2981 52.9778 94.7064 52.6117 95.2132 52.3865C95.72 52.1471 96.3113 52.0908 96.9871 52.1894C97.6629 52.2879 98.212 52.5272 98.6202 52.8933C99.0426 53.2593 99.3242 53.7239 99.479 54.3011C99.6339 54.8643 99.662 55.5119 99.5494 56.2158C99.4368 56.9198 99.2397 57.5251 98.93 58.0179ZM94.5797 57.2858C94.8753 57.7645 95.3962 58.0601 96.1142 58.1728C96.8323 58.2854 97.4095 58.1446 97.8459 57.7645C98.2683 57.3844 98.5358 56.8353 98.6484 56.0891C98.761 55.343 98.6625 54.7376 98.3527 54.2589C98.0571 53.7802 97.5362 53.4846 96.8182 53.372C96.1002 53.2593 95.5229 53.4001 95.0865 53.7802C94.6642 54.1604 94.3967 54.7094 94.284 55.4556C94.1714 56.1877 94.2699 56.7931 94.5797 57.2858Z" fill="white"/>
<path d="M89.976 67.3802L94.7486 67.8307L94.7627 67.8025L91.1304 64.6771L91.6091 63.5508L97.8318 64.0435L97.3813 65.1135L92.5664 64.6348L92.5524 64.663L96.241 67.8166L95.7764 68.9288L90.9474 68.4783L90.9333 68.5064L94.636 71.6178L94.1996 72.6596L89.4973 68.5346L89.976 67.3802Z" fill="white"/>
<path d="M82.8665 78.3615L83.6267 77.376L86.4283 77.6857L88.0896 75.5176L86.1608 74.0535L86.8085 73.2087L91.5107 76.8129L88.878 80.248C88.4416 80.8112 88.0192 81.1491 87.5969 81.2335C87.1745 81.318 86.724 81.1772 86.2312 80.8112C85.4851 80.248 85.3443 79.53 85.7948 78.6853L85.7667 78.6712L82.8665 78.3615ZM86.5973 79.2907C86.6114 79.4878 86.724 79.6849 86.9633 79.8679C87.1886 80.0369 87.3998 80.1073 87.6109 80.065C87.8221 80.0228 88.0051 79.8679 88.2163 79.6004L90.1451 77.0944L88.8217 76.0808L86.8929 78.5868C86.6818 78.8543 86.5832 79.0936 86.5973 79.2907Z" fill="white"/>
<path d="M81.726 84.3448L78.3753 87.1324L77.8122 86.4566L81.1629 83.6691L80.0366 82.3175L76.5029 85.274L75.9257 84.5842L80.2759 80.9519L84.0772 85.4993L79.8114 89.0612L79.2341 88.3713L82.6834 85.4852L81.726 84.3448Z" fill="white"/>
<path d="M73.4055 90.3283L69.5339 92.3415L69.1256 91.5672L72.9972 89.554L72.1947 88.0053L68.1119 90.1312L67.6896 89.3287L72.7297 86.7101L75.461 91.9755L70.5335 94.5378L70.1111 93.7353L74.0953 91.6658L73.4055 90.3283Z" fill="white"/>
<path d="M64.0855 90.6943L65.62 96.4243L64.5923 96.7059L63.2971 91.8629L58.8482 93.0595L58.6089 92.1726L64.0855 90.6943Z" fill="white"/>
<path d="M34.1827 95.9175C33.9434 95.5514 33.9011 95.0728 34.0701 94.4815C34.239 93.8761 34.5206 93.4819 34.9007 93.2989C35.2949 93.1158 35.8299 93.1158 36.5197 93.2989L39.5466 94.1295L40.1661 91.8488L41.1938 92.1303L39.6311 97.8462L35.5905 96.734C34.9007 96.551 34.4361 96.2835 34.1827 95.9175ZM35.6187 94.1717C35.4216 94.2703 35.2808 94.4674 35.1963 94.763C35.1119 95.0587 35.126 95.3121 35.2527 95.4951C35.3794 95.6781 35.6187 95.8189 35.9707 95.9034L38.8427 96.6918L39.3214 94.9601L36.4493 94.1717C36.0974 94.0873 35.8299 94.0873 35.6187 94.1717Z" fill="white"/>
<path d="M31.7753 89.0613L28.9878 94.2985L28.0445 93.8058L30.3956 89.3851L26.3269 87.2029L26.7633 86.3864L31.7753 89.0613Z" fill="white"/>
<path d="M19.0624 82.0642L21.8218 84.4435L23.1874 83.8804L24.0743 84.6406L17.8938 87.1466L16.9506 86.33L18.5133 79.8539L19.4143 80.6282L19.0624 82.0642ZM18.8089 83.0356L18.0768 85.964L18.105 85.9921L20.8926 84.8377L18.8089 83.0356Z" fill="white"/>
<path d="M13.3182 77.0099L15.0499 75.6443L15.7116 76.4749L13.9799 77.8265L12.8536 82.4442L12.0371 81.4165L12.8959 77.9954H9.34805L8.57373 76.9958L13.3182 77.0099Z" fill="white"/>
<path d="M3.09752 63.1003C3.05528 63.4663 3.12568 63.9309 3.3087 64.5222C3.67474 65.6062 4.12526 66.0708 4.67432 65.8878C4.89958 65.8174 5.02629 65.6907 5.06852 65.5077C5.11076 65.3247 5.09668 65.0713 5.02629 64.7334L4.51946 62.5793C4.39275 62.0021 4.39275 61.5234 4.53354 61.1433C4.67432 60.7632 5.01221 60.4816 5.56127 60.2986C6.20889 60.0874 6.74388 60.2001 7.20847 60.6224C7.65898 61.0589 8.05318 61.7628 8.37699 62.7483C8.7008 63.7056 8.78527 64.5081 8.65856 65.1276C8.51778 65.7611 8.08134 66.1975 7.34925 66.465L6.98321 65.3669C7.43373 65.198 7.70122 64.9164 7.77161 64.5222C7.842 64.128 7.77161 63.6212 7.56043 63.0017C7.36333 62.3963 7.124 61.9458 6.87058 61.6783C6.60309 61.4108 6.32152 61.3263 6.02587 61.4249C5.75837 61.5094 5.58943 61.6502 5.53312 61.8473C5.4768 62.0444 5.4768 62.2837 5.54719 62.5934L6.03995 64.7615C6.16665 65.3387 6.16665 65.8174 6.03995 66.1835C5.91324 66.5495 5.60351 66.817 5.11076 66.9859C4.53354 67.183 4.01263 67.0704 3.59027 66.6762C3.15383 66.282 2.80187 65.6485 2.50622 64.7756C1.87268 62.8468 2.16833 61.6642 3.39317 61.2278L3.75921 62.3259C3.36501 62.4808 3.15383 62.7342 3.09752 63.1003Z" fill="white"/>
<path d="M0 50.331L5.91301 49.796L6.01156 50.8519L3.43518 51.0913L3.8153 55.2867L6.39168 55.0473L6.49023 56.1032L0.577222 56.6382L0.478672 55.5823L2.90019 55.3571L2.52007 51.1616L0.0985501 51.3869L0 50.331Z" fill="white"/>
<path d="M1.08384 39.8143C1.39357 39.3075 1.80185 38.9414 2.30868 38.7162C2.81551 38.4768 3.40681 38.4205 4.08258 38.5191C4.75835 38.6176 5.30742 38.857 5.7157 39.223C6.13805 39.589 6.41963 40.0536 6.57449 40.6309C6.72936 41.2081 6.75751 41.8275 6.64488 42.5315C6.54633 43.2354 6.33515 43.8408 6.02543 44.3476C5.7157 44.8544 5.30742 45.2205 4.80059 45.4457C4.29376 45.6851 3.70246 45.7414 3.02668 45.6428C2.35091 45.5443 1.80185 45.3049 1.39357 44.9389C0.97121 44.5729 0.689638 44.1083 0.534773 43.531C0.379909 42.9679 0.351752 42.3203 0.46438 41.6164C0.562931 40.9265 0.77411 40.3211 1.08384 39.8143ZM5.43412 40.5605C5.13847 40.0818 4.61757 39.7861 3.89956 39.6735C3.18155 39.5609 2.60433 39.7017 2.16789 40.0818C1.74553 40.4619 1.47804 41.011 1.36541 41.7571C1.25278 42.5033 1.35133 43.1087 1.66106 43.5874C1.95671 44.066 2.47762 44.3617 3.19563 44.4743C3.91364 44.5869 4.49086 44.4462 4.92729 44.066C5.34965 43.6859 5.61715 43.1368 5.72977 42.3907C5.82833 41.6586 5.72977 41.0391 5.43412 40.5605Z" fill="white"/>
<path d="M10.0381 30.4661L5.26546 30.0156L5.25138 30.0438L8.88366 33.1692L8.40499 34.2955L2.18225 33.8027L2.63277 32.7328L7.44765 33.2114L7.46172 33.1833L3.77313 30.0297L4.23773 28.9175L9.06668 29.368L9.08076 29.3398L5.37809 26.2285L5.81453 25.1866L10.5168 29.3117L10.0381 30.4661Z" fill="white"/>
<path d="M17.1478 19.4707L16.3876 20.4562L13.586 20.1465L11.9247 22.3146L13.8394 23.7788L13.1918 24.6235L8.4895 21.0194L11.1222 17.5842C11.5586 17.0211 11.981 16.6832 12.4034 16.5987C12.8257 16.5142 13.2762 16.655 13.769 17.0211C14.5151 17.5842 14.6559 18.3022 14.2054 19.1469L14.2336 19.161L17.1478 19.4707ZM13.4029 18.5416C13.3889 18.3445 13.2762 18.1474 13.0369 17.9643C12.8116 17.7954 12.6005 17.725 12.3893 17.7672C12.1922 17.8095 11.9951 17.9643 11.7839 18.2318L9.85513 20.7378L11.1785 21.7515L13.1073 19.2455C13.3185 18.9921 13.417 18.7527 13.4029 18.5416Z" fill="white"/>
<path d="M18.2741 13.5015L21.6248 10.7139L22.1879 11.3897L18.8372 14.1773L19.9635 15.5288L23.4973 12.5723L24.0745 13.2621L19.7242 16.8944L15.923 12.347L20.1888 8.78516L20.766 9.47501L17.3168 12.347L18.2741 13.5015Z" fill="white"/>
<path d="M26.6088 7.50393L30.4804 5.49069L30.8887 6.26502L27.0171 8.27826L27.8196 9.8269L31.9024 7.70103L32.3247 8.50351L27.2846 11.1221L24.5533 5.85674L29.4809 3.29443L29.9032 4.09691L25.919 6.16647L26.6088 7.50393Z" fill="white"/>
<path d="M35.9285 7.1379L34.3939 1.40791L35.4217 1.12634L36.7169 5.96938L41.1657 4.7727L41.4051 5.65965L35.9285 7.1379Z" fill="white"/>
</svg>
